<?xml version="1.0" encoding="utf-8"?>
<!-- Generator: Adobe Illustrator 26.3.1, SVG Export Plug-In . SVG Version: 6.00 Build 0)  -->
<svg version="1.1" id="Слой_1" xmlns="http://www.w3.org/2000/svg" xmlns:xlink="http://www.w3.org/1999/xlink" x="0px" y="0px"
	 viewBox="0 0 500 500" style="enable-background:new 0 0 500 500;" xml:space="preserve">
<g>
	<path d="M369.6,229.6c-2.8-4-5-7.1-6-8.8c-0.7-1.2-0.7-1.4,0.8-3.7c2.5-4.1,6.8-10.9,2.4-29.6c-6.7-28.7-25.1-52-32.6-58.2
		c-7.1-6-45.5-28.3-81.1-28.3c-8.1,0-16.5,0.9-25,2.5c-4.5,0.9-8.9,2-13.3,3.5v-2.3h-36.1v19.5c-6.2,1.7-12.1,4.1-17.5,7.3
		l-13.8-13.8l-25.5,25.5l13.8,13.8c-3.2,5.5-5.7,11.4-7.3,17.5h-19.5v36.1h19.5c1.6,6.1,4.1,12,7.3,17.5L121.9,242l25.5,25.5
		l6.6-6.6c2.3,4.1,4.6,7.8,6.8,11.4c9.1,14.7,16.3,26.4,15.1,50.1c-1.3,24.9-16.7,55-29.4,75.8l132.7-2.3l-2.6-59.4l0-2.1
		c0.6,0.1,1.3,0.3,2.1,0.4c1.2,0.2,2.6,0.5,4.1,0.8c0.3,0,0.6,0.1,0.8,0.2c0.6,0.1,1.1,0.2,1.7,0.3c2.1,0.4,4.5,0.9,7,1.4
		c1,0.2,2,0.4,3.1,0.6c1.1,0.2,2.1,0.5,3.2,0.6c1.7,0.3,3.4,0.6,5.1,1c0.6,0.1,1.2,0.2,1.8,0.4c9.4,1.8,19.4,3.8,28.1,5.3
		c1.8,0.3,3.6,0.6,5.3,0.9c5.1,0.9,9.4,1.6,12.4,2c0.6,0.1,1.2,0.1,1.7,0.2c1,0.1,1.7,0.2,2.3,0.2c10,0,12.7-10.7,12.7-17.1
		c0-3.3-1-6.6-1.8-9.2c-0.6-1.7-1.1-3.4-1.1-4.3c0-0.8,0.9-2.1,1.7-3.5c1.2-1.8,2.6-4.1,3.2-6.9c0.7-3.5,0.1-5.5-0.4-7
		c-0.2-0.7-0.3-1.2-0.3-1.7c0-0.6,0.9-1.5,1.8-2.4c0.7-0.7,1.5-1.4,2.1-2.3c2.5-3.4,2.5-7.6,0-11c-1.7-2.2-1.3-5.1-0.8-5.9
		c0.5-0.5,2.8-1.6,4.6-2.4c8.1-3.9,13.9-7,13.9-11.1C390.8,260.6,383.9,250.2,369.6,229.6z M153.5,254.9l-1.7,1.7l-4.3,4.3l-19-19
		l12.1-12.1l1-1l-1-1.6c-0.6-1-1.2-1.9-1.7-2.9c-2.9-5.2-5.1-10.8-6.4-16.6l-0.4-1.8h-18.6v-26.9h18.6l0.4-1.8
		c1.6-6.9,4.3-13.5,8.1-19.5l1-1.5l-13.1-13.1l19-19l13.1,13.1l1.5-1c2.4-1.5,4.8-2.8,7.4-3.9c2.3-1.1,4.7-1.9,7.1-2.8
		c1.7-0.5,3.4-1,5.1-1.4l1-0.2c0.2-0.1,0.5-0.3,0.7-0.5v-18.2h26.9v18.6l1.8,0.4c7,1.7,13.5,4.4,19.5,8.1l1.5,1l13.1-13.1l19,19
		l-6.7,6.7l-6.4,6.4l1,1.5c3.7,6.1,6.4,12.6,8.1,19.5l0.4,1.8h18.6V206h-18.6l-0.4,1.8c-1.6,6.9-4.3,13.5-8.1,19.5l-1,1.6l13.1,13.1
		l-19,19l-13.1-13.1l-1.5,1c-6,3.7-12.6,6.4-19.5,8.1l-1.8,0.4v18.6h-26.9v-18.6l-1.8-0.4c-7-1.7-13.5-4.4-19.5-8.1l-1.5-1l-5.4,5.4
		L153.5,254.9z M311.9,336.7l-14.8-77h4.4l15.4,78C315.2,337.4,313.6,337.1,311.9,336.7z M291.9,247.6c-0.6-0.9-0.9-1.8-1.2-2.9
		l-0.4-1.8h-2.9v-0.9h2.9l0.4-1.8c0.2-1,0.6-1.9,1.2-2.8l1-1.6l-2-2l0.6-0.6l2,2l1.5-1c0.9-0.5,1.8-0.9,2.9-1.2l1.8-0.4v-2.9h0.9
		v2.9l1.8,0.4c1,0.2,2,0.6,2.9,1.2l1.5,1l2-2l0.6,0.6l-2,2l1,1.5c0.6,0.9,0.9,1.8,1.2,2.9l0.4,1.8h2.9v0.9h-2.9l-0.4,1.8
		c-0.2,1-0.6,1.9-1.2,2.8l-1,1.6l2,2l-0.6,0.6l-2-2l-1.5,1c-0.9,0.6-1.8,1-2.9,1.2l-1.8,0.4v2.8h-0.9v-2.8l-1.8-0.4
		c-1-0.2-2-0.6-2.9-1.2l-1.5-1l-2,2l-0.6-0.6l2-2L291.9,247.6z M374.9,271.1c-3.9,1.9-5.5,2.7-6.3,3.7c-1.8,2.6-2,7.7,0.8,11.5
		c1.8,2.4,0.8,4.5,0,5.5c-0.5,0.6-1.1,1.2-1.7,1.7c-1.4,1.4-3.2,3.1-3.2,5.7c0,1.2,0.3,2.1,0.5,2.9c0.4,1.2,0.7,2.4,0.3,4.8
		c-0.4,1.9-1.5,3.6-2.6,5.3c-1.2,2-2.4,3.8-2.4,5.9c0,1.6,0.6,3.5,1.2,5.6c0.8,2.5,1.7,5.3,1.7,7.9c0,0.5-0.1,12.5-8.1,12.5
		c-3.2,0-17.4-2.5-33.4-5.6l-16-80.9l-0.6,0.1v-2c0.2-0.1,0.5-0.2,0.8-0.3l2.8,2.8l7.1-7.1l-2.8-2.8c0.1-0.3,0.2-0.5,0.3-0.8h3.9
		v-10.1h-3.9c-0.1-0.3-0.2-0.6-0.3-0.8l2.8-2.8l-7.1-7.1l-2.8,2.8c-0.3-0.1-0.6-0.2-0.8-0.4v-3.9h-10.1v3.9
		c-0.2,0.1-0.5,0.2-0.8,0.4l-2.8-2.8l-7.1,7.1l2.8,2.8c-0.1,0.3-0.2,0.6-0.3,0.8h-3.9v10.1h3.9c0.1,0.3,0.2,0.5,0.3,0.8l-2.8,2.8
		l7.1,7.1l2.8-2.8c0.3,0.1,0.6,0.2,0.8,0.3v3.9h1l-1.3,0.2l-2.3,0.5l14.4,75.3v0c-1-0.2-1.9-0.4-2.8-0.6c-4.2-0.8-8.4-1.7-12.3-2.4
		c-1-0.2-1.9-0.4-2.9-0.6c-1.8-0.4-3.6-0.7-5.3-1.1c-1.8-0.4-3.4-0.7-4.8-1c-1.5-0.3-2.9-0.6-4.2-0.8c-0.9-0.1-1.8-0.2-2.7-0.4
		c-11.7-1.7-24.4-4-27-5.3c-1.4-4.4-9.2-34-14.4-53.8l-2.2,0.6l-2.3,0.6c0.1,0.6,0.3,1.3,0.6,2.1c3.1,12.1,13.1,50.3,14.1,52.7
		c0.5,1.2,1.6,3.7,31.3,7.7l2.4,58.5l-119.8,1.5c1.3-2.2,2.6-4.5,3.8-6.8c0.6-1.1,1.2-2.2,1.8-3.3c3.4-6.3,6.6-12.9,9.4-19.7v0
		c0.4-0.8,0.7-1.6,1-2.4c0.6-1.4,1.2-2.9,1.7-4.3c0.4-0.9,0.7-1.8,1.1-2.8c0.3-0.9,0.6-1.8,0.9-2.7c0.4-1.2,0.8-2.4,1.2-3.6
		c0.4-1.3,0.8-2.6,1.2-4c0.7-2.3,1.3-4.7,1.8-7c0.2-1,0.4-2,0.6-3c0.3-1.7,0.6-3.3,0.8-5c0.1-0.9,0.2-1.9,0.3-2.8
		c0.1-1.2,0.2-2.3,0.3-3.5c1.3-25.1-6.2-37.3-15.8-52.7c-2.3-3.9-4.8-7.9-7.3-12.4l3.8-3.8c5.4,3.2,11.3,5.6,17.5,7.3v19.5h36.1V261
		c6.2-1.7,12.1-4.1,17.5-7.3l13.8,13.8l25.5-25.5l-13.8-13.8c3.2-5.5,5.7-11.4,7.3-17.5h19.5v-36.1h-19.5
		c-1.6-6.2-4.1-12.1-7.3-17.5l13.8-13.8l-17.5-17.5c29.8,6.2,66.7,23.5,71.4,71.2c0.1,0.6,0.1,1.3,0.2,1.9l2.3-0.2l2.3-0.2
		c-4.2-54.8-49.2-72.5-81.5-78.2l-2.6-2.6l-1.9,1.9c-16.2-2.4-28.2-1.8-28.6-1.8l0.1,2.3l0.1,2.3c0.4,0,1.4-0.1,3-0.1
		c4.1-0.1,11.9,0,21.4,1.1l-8.1,8.1c-0.4-0.2-0.7-0.4-1.1-0.6c-5.1-2.9-10.7-5.1-16.4-6.7v-12.4c4.7-1.6,9.4-2.8,14.1-3.8
		c8.2-1.6,16.4-2.4,24.1-2.4c33.9,0,71.5,21.6,78.1,27.2c6,5,24.5,27.6,31,55.7c4,16.8,0.5,22.4-1.8,26.1c-1.5,2.3-3.1,4.9-0.7,8.6
		c1.1,1.7,3.3,4.9,6.1,8.9c6.4,9.3,19.9,28.7,20.4,31.9C385.7,265.9,377.9,269.7,374.9,271.1z"/>
	<path d="M313.4,184.8c-1.3,0-2.6,0.4-3.7,1c-2.4,1.3-4.1,3.9-4.1,6.8c0,4.3,3.5,7.8,7.8,7.8c3.9,0,7.1-2.8,7.7-6.6
		c0-0.4,0.1-0.8,0.1-1.2C321.2,188.3,317.7,184.8,313.4,184.8z M313.4,195.7c-1.8,0-3.2-1.4-3.2-3.2s1.4-3.2,3.2-3.2
		s3.2,1.4,3.2,3.2S315.1,195.7,313.4,195.7z"/>
	<path d="M301.3,162.9c-4.3,0-7.8,3.5-7.8,7.8c0,2,0.8,3.8,2.1,5.2c0.7,0.9,1.8,1.6,2.9,2.1c0.9,0.3,1.8,0.5,2.8,0.5
		c4.3,0,7.8-3.5,7.8-7.8S305.6,162.9,301.3,162.9z M301.3,173.9c-1.8,0-3.2-1.4-3.2-3.2s1.4-3.2,3.2-3.2s3.2,1.4,3.2,3.2
		S303,173.9,301.3,173.9z"/>
	<path d="M282.4,141c-4.3,0-7.8,3.5-7.8,7.8s3.5,7.8,7.8,7.8s7.8-3.5,7.8-7.8S286.7,141,282.4,141z M282.4,151.9
		c-1.8,0-3.2-1.4-3.2-3.2c0-1.8,1.4-3.2,3.2-3.2s3.2,1.4,3.2,3.2C285.6,150.5,284.1,151.9,282.4,151.9z"/>
</g>
</svg>
